<?xml version="1.0" encoding="utf-8"?>
<!-- Svg Vector Icons : http://www.onlinewebfonts.com/icon -->
<!DOCTYPE svg PUBLIC "-//W3C//DTD SVG 1.1//EN" "http://www.w3.org/Graphics/SVG/1.1/DTD/svg11.dtd">
<svg version="1.1" xmlns="http://www.w3.org/2000/svg" xmlns:xlink="http://www.w3.org/1999/xlink" x="0px" y="0px" viewBox="0 0 1000 1000" enable-background="new 0 0 1000 1000" xml:space="preserve">
<metadata> Svg Vector Icons : http://www.onlinewebfonts.com/icon </metadata>
<g><path d="M846.5,153.6C753.9,61,630.9,10,500,10S246.1,61,153.5,153.5C61,246.1,10,369.1,10,500c0,130.9,51,253.9,143.5,346.4C246.1,939,369.1,990,500,990c130.9,0,253.9-51,346.5-143.5C939,753.9,990,630.9,990,500C990,369.1,939,246.1,846.5,153.6z M803.1,803.1c-81,81-188.6,125.6-303.1,125.6s-222.2-44.6-303.1-125.6c-81-81-125.6-188.6-125.6-303.1s44.6-222.1,125.6-303.1c80.9-81,188.6-125.6,303.1-125.6c114.5,0,222.2,44.6,303.1,125.6c81,81,125.6,188.6,125.6,303.1C928.8,614.5,884.1,722.1,803.1,803.1z M783.7,474.2H525.8V216.3c0-16.9-8.9-22.6-25.8-22.6c-16.9,0-25.8,5.7-25.8,22.6v257.9H216.4c-16.9,0-22.6,8.9-22.6,25.8c0,16.9,5.6,25.8,22.6,25.8h257.9v257.9c0,16.9,8.9,22.5,25.8,22.5c16.9,0,25.8-5.6,25.8-22.5V525.8h257.9c16.9,0,22.6-8.9,22.6-25.8C806.3,483.1,800.6,474.2,783.7,474.2z"/></g>
</svg>