<?xml version="1.0" encoding="utf-8"?>
<!-- Svg Vector Icons : http://www.onlinewebfonts.com/icon -->
<!DOCTYPE svg PUBLIC "-//W3C//DTD SVG 1.1//EN" "http://www.w3.org/Graphics/SVG/1.1/DTD/svg11.dtd">
<svg version="1.1" xmlns="http://www.w3.org/2000/svg" xmlns:xlink="http://www.w3.org/1999/xlink" x="0px" y="0px" viewBox="0 0 1000 1000" enable-background="new 0 0 1000 1000" xml:space="preserve">
<metadata> Svg Vector Icons : http://www.onlinewebfonts.com/icon </metadata>
<g><path d="M912.8,207.5H87.2c-17.8,0-32.3-14.5-32.3-32.3l0,0c0-17.8,14.5-32.3,32.3-32.3h825.7c17.8,0,32.3,14.5,32.3,32.3l0,0C945.1,193.1,930.7,207.5,912.8,207.5z"/><path d="M456.6,55.6c0,25.2,20.4,45.6,45.6,45.6s45.6-20.4,45.6-45.6c0-25.2-20.4-45.6-45.6-45.6S456.6,30.4,456.6,55.6z"/><path d="M566.2,408.4L566.2,408.4c12.2,0,22.2,9.9,22.2,22.2v398.7c0,12.2-9.9,22.2-22.2,22.2l0,0c-12.2,0-22.2-9.9-22.2-22.2V430.6C544.1,418.4,554,408.4,566.2,408.4z"/><path d="M433.7,408.4L433.7,408.4c12.2,0,22.1,9.9,22.1,22.1v398.8c0,12.2-9.9,22.1-22.1,22.1l0,0c-12.2,0-22.1-9.9-22.1-22.1V430.5C411.6,418.3,421.5,408.4,433.7,408.4z"/><path d="M822.2,266.1c-17.9,0-32.4,14.5-32.4,32.4h-0.3l-80.4,580.9l-0.3,2.2v2.2c0,25-13.6,41.5-22.6,41.5H313.7c-9,0-22.6-16.6-22.6-41.5v-2.2l-80.7-583.1h-0.3c0-17.9-14.5-32.4-32.4-32.4c-17.9,0-32.4,14.5-32.4,32.4v2.2l0.4,2.6c0,0,0,0.1,0,0.1l80.6,582.8c0.5,25.7,8.4,50.1,22.5,69.1c16.4,22.1,40,34.8,64.8,34.8h372.6c24.7,0,48.3-12.7,64.8-34.8c14.1-19,22-43.4,22.5-69.1l80.6-582.8c0,0,0,0,0,0l0.1-0.5l0.3-2.2v-2.2C854.5,280.6,840,266.1,822.2,266.1z"/></g>
</svg>